<mxfile host="65bd71144e">
    <diagram id="Av8XbvPouvLsDQXN2_S6" name="Page-1">
        <mxGraphModel dx="652" dy="585" grid="1" gridSize="10" guides="1" tooltips="1" connect="1" arrows="1" fold="1" page="1" pageScale="1" pageWidth="1100" pageHeight="1700" math="0" shadow="0">
            <root>
                <mxCell id="0"/>
                <mxCell id="1" parent="0"/>
                <mxCell id="2" value="User Login or New User?&lt;br&gt;&amp;gt;&amp;gt; New User" style="rounded=0;whiteSpace=wrap;html=1;" parent="1" vertex="1">
                    <mxGeometry x="155" y="40" width="390" height="130" as="geometry"/>
                </mxCell>
                <mxCell id="3" value="User Login&lt;br&gt;&lt;br&gt;Username:&amp;nbsp;&lt;br&gt;&lt;br&gt;&amp;gt;&amp;gt;" style="rounded=0;whiteSpace=wrap;html=1;" parent="1" vertex="1">
                    <mxGeometry x="210" y="210" width="280" height="120" as="geometry"/>
                </mxCell>
                <mxCell id="4" value="Password:&amp;nbsp;&lt;br&gt;&lt;br&gt;&amp;gt;&amp;gt;&amp;nbsp;" style="rounded=0;whiteSpace=wrap;html=1;" parent="1" vertex="1">
                    <mxGeometry x="230" y="400" width="240" height="160" as="geometry"/>
                </mxCell>
                <mxCell id="5" value="1. blog titles&lt;br&gt;2, blog titles&lt;br&gt;3.&amp;nbsp;&lt;br&gt;4.&amp;nbsp;&lt;br&gt;5.&lt;br&gt;6.&lt;br&gt;7.&lt;br&gt;8.&lt;br&gt;&lt;br&gt;&amp;gt;&amp;gt; INPUT ARTICLE KEY&lt;br&gt;CREATE POST&lt;br&gt;LOG OUT (quit)" style="rounded=0;whiteSpace=wrap;html=1;" parent="1" vertex="1">
                    <mxGeometry x="210" y="610" width="280" height="260" as="geometry"/>
                </mxCell>
                <mxCell id="6" value="4. BLOG TITLE&lt;br&gt;BLOG AUTHOR&lt;br&gt;&lt;br&gt;BLOG CONTENT&lt;br&gt;&lt;br&gt;LIKE COUNT:&lt;br&gt;DISLIKE COUNT:&lt;br&gt;&lt;br&gt;&amp;gt;&amp;gt; LIKE?&lt;br&gt;DISLIKE?&lt;br&gt;BACK?&amp;nbsp;" style="rounded=0;whiteSpace=wrap;html=1;" parent="1" vertex="1">
                    <mxGeometry x="220" y="940" width="260" height="180" as="geometry"/>
                </mxCell>
                <mxCell id="7" value="USER" style="rounded=0;whiteSpace=wrap;html=1;" parent="1" vertex="1">
                    <mxGeometry x="100" y="1340" width="320" height="150" as="geometry"/>
                </mxCell>
                <mxCell id="8" value="POST" style="rounded=0;whiteSpace=wrap;html=1;" parent="1" vertex="1">
                    <mxGeometry x="530" y="1240" width="120" height="60" as="geometry"/>
                </mxCell>
                <mxCell id="9" value="POST" style="rounded=0;whiteSpace=wrap;html=1;" parent="1" vertex="1">
                    <mxGeometry x="550" y="1380" width="120" height="60" as="geometry"/>
                </mxCell>
                <mxCell id="10" value="POST" style="rounded=0;whiteSpace=wrap;html=1;" parent="1" vertex="1">
                    <mxGeometry x="530" y="1540" width="120" height="60" as="geometry"/>
                </mxCell>
                <mxCell id="11" value="DISLIKES" style="rounded=0;whiteSpace=wrap;html=1;" parent="1" vertex="1">
                    <mxGeometry x="840" y="1350" width="120" height="60" as="geometry"/>
                </mxCell>
                <mxCell id="12" value="DISLIKES" style="rounded=0;whiteSpace=wrap;html=1;" parent="1" vertex="1">
                    <mxGeometry x="880" y="1240" width="120" height="60" as="geometry"/>
                </mxCell>
                <mxCell id="13" value="LIKES" style="rounded=0;whiteSpace=wrap;html=1;" parent="1" vertex="1">
                    <mxGeometry x="850" y="1130" width="120" height="60" as="geometry"/>
                </mxCell>
                <mxCell id="14" style="edgeStyle=none;html=1;exitX=0.5;exitY=0;exitDx=0;exitDy=0;entryX=0.442;entryY=-0.1;entryDx=0;entryDy=0;entryPerimeter=0;" parent="1" source="9" target="9" edge="1">
                    <mxGeometry relative="1" as="geometry"/>
                </mxCell>
                <mxCell id="15" value="" style="endArrow=none;dashed=1;html=1;entryX=0;entryY=0.5;entryDx=0;entryDy=0;" parent="1" target="13" edge="1">
                    <mxGeometry width="50" height="50" relative="1" as="geometry">
                        <mxPoint x="630" y="1280" as="sourcePoint"/>
                        <mxPoint x="680" y="1230" as="targetPoint"/>
                    </mxGeometry>
                </mxCell>
                <mxCell id="17" value="" style="endArrow=none;dashed=1;html=1;dashPattern=1 3;strokeWidth=2;" parent="1" target="12" edge="1">
                    <mxGeometry width="50" height="50" relative="1" as="geometry">
                        <mxPoint x="640" y="1405" as="sourcePoint"/>
                        <mxPoint x="690" y="1355" as="targetPoint"/>
                    </mxGeometry>
                </mxCell>
                <mxCell id="18" value="" style="endArrow=none;dashed=1;html=1;dashPattern=1 3;strokeWidth=2;" parent="1" source="9" target="11" edge="1">
                    <mxGeometry width="50" height="50" relative="1" as="geometry">
                        <mxPoint x="650" y="1450" as="sourcePoint"/>
                        <mxPoint x="700" y="1400" as="targetPoint"/>
                    </mxGeometry>
                </mxCell>
                <mxCell id="19" value="" style="endArrow=none;dashed=1;html=1;entryX=0;entryY=1;entryDx=0;entryDy=0;" parent="1" target="8" edge="1">
                    <mxGeometry width="50" height="50" relative="1" as="geometry">
                        <mxPoint x="400" y="1400" as="sourcePoint"/>
                        <mxPoint x="450" y="1350" as="targetPoint"/>
                    </mxGeometry>
                </mxCell>
                <mxCell id="20" value="" style="endArrow=none;dashed=1;html=1;dashPattern=1 3;strokeWidth=2;" parent="1" target="9" edge="1">
                    <mxGeometry width="50" height="50" relative="1" as="geometry">
                        <mxPoint x="390" y="1450" as="sourcePoint"/>
                        <mxPoint x="440" y="1400" as="targetPoint"/>
                    </mxGeometry>
                </mxCell>
                <mxCell id="21" value="" style="endArrow=none;dashed=1;html=1;dashPattern=1 3;strokeWidth=2;" parent="1" target="10" edge="1">
                    <mxGeometry width="50" height="50" relative="1" as="geometry">
                        <mxPoint x="400" y="1440" as="sourcePoint"/>
                        <mxPoint x="450" y="1390" as="targetPoint"/>
                    </mxGeometry>
                </mxCell>
            </root>
        </mxGraphModel>
    </diagram>
</mxfile>